<mxfile host="65bd71144e">
    <diagram id="CypaR-xeO_n1jcAEBoC6" name="第1頁">
        <mxGraphModel dx="1026" dy="617" grid="1" gridSize="10" guides="1" tooltips="1" connect="1" arrows="1" fold="1" page="1" pageScale="1" pageWidth="827" pageHeight="1169" math="0" shadow="0">
            <root>
                <mxCell id="0"/>
                <mxCell id="1" parent="0"/>
                <mxCell id="paJvAujb9Q9d58m82h-k-3" value="" style="edgeStyle=orthogonalEdgeStyle;rounded=0;orthogonalLoop=1;jettySize=auto;html=1;" parent="1" source="paJvAujb9Q9d58m82h-k-1" target="paJvAujb9Q9d58m82h-k-2" edge="1">
                    <mxGeometry relative="1" as="geometry"/>
                </mxCell>
                <mxCell id="paJvAujb9Q9d58m82h-k-1" value="首頁" style="rounded=1;whiteSpace=wrap;html=1;" parent="1" vertex="1">
                    <mxGeometry x="330" y="30" width="120" height="60" as="geometry"/>
                </mxCell>
                <mxCell id="paJvAujb9Q9d58m82h-k-4" style="edgeStyle=orthogonalEdgeStyle;rounded=0;orthogonalLoop=1;jettySize=auto;html=1;entryX=1;entryY=0.75;entryDx=0;entryDy=0;" parent="1" source="paJvAujb9Q9d58m82h-k-2" target="paJvAujb9Q9d58m82h-k-1" edge="1">
                    <mxGeometry relative="1" as="geometry">
                        <mxPoint x="500" y="60" as="targetPoint"/>
                        <Array as="points">
                            <mxPoint x="470" y="160"/>
                            <mxPoint x="470" y="75"/>
                        </Array>
                    </mxGeometry>
                </mxCell>
                <mxCell id="paJvAujb9Q9d58m82h-k-12" value="" style="edgeStyle=orthogonalEdgeStyle;rounded=0;orthogonalLoop=1;jettySize=auto;html=1;" parent="1" source="paJvAujb9Q9d58m82h-k-2" edge="1">
                    <mxGeometry relative="1" as="geometry">
                        <mxPoint x="90" y="220" as="targetPoint"/>
                        <Array as="points">
                            <mxPoint x="390" y="210"/>
                            <mxPoint x="90" y="210"/>
                            <mxPoint x="90" y="220"/>
                        </Array>
                    </mxGeometry>
                </mxCell>
                <mxCell id="paJvAujb9Q9d58m82h-k-14" value="" style="edgeStyle=orthogonalEdgeStyle;rounded=0;orthogonalLoop=1;jettySize=auto;html=1;" parent="1" source="paJvAujb9Q9d58m82h-k-2" edge="1">
                    <mxGeometry relative="1" as="geometry">
                        <mxPoint x="290" y="220" as="targetPoint"/>
                        <Array as="points">
                            <mxPoint x="390" y="210"/>
                            <mxPoint x="290" y="210"/>
                            <mxPoint x="290" y="220"/>
                        </Array>
                    </mxGeometry>
                </mxCell>
                <mxCell id="paJvAujb9Q9d58m82h-k-16" style="edgeStyle=orthogonalEdgeStyle;rounded=0;orthogonalLoop=1;jettySize=auto;html=1;" parent="1" source="paJvAujb9Q9d58m82h-k-2" edge="1">
                    <mxGeometry relative="1" as="geometry">
                        <mxPoint x="520" y="220" as="targetPoint"/>
                        <Array as="points">
                            <mxPoint x="390" y="210"/>
                            <mxPoint x="520" y="210"/>
                        </Array>
                    </mxGeometry>
                </mxCell>
                <mxCell id="paJvAujb9Q9d58m82h-k-18" style="edgeStyle=orthogonalEdgeStyle;rounded=0;orthogonalLoop=1;jettySize=auto;html=1;" parent="1" source="paJvAujb9Q9d58m82h-k-2" target="paJvAujb9Q9d58m82h-k-11" edge="1">
                    <mxGeometry relative="1" as="geometry">
                        <Array as="points">
                            <mxPoint x="390" y="210"/>
                            <mxPoint x="750" y="210"/>
                        </Array>
                    </mxGeometry>
                </mxCell>
                <mxCell id="paJvAujb9Q9d58m82h-k-2" value="登入系統" style="rounded=1;whiteSpace=wrap;html=1;" parent="1" vertex="1">
                    <mxGeometry x="330" y="130" width="120" height="60" as="geometry"/>
                </mxCell>
                <mxCell id="paJvAujb9Q9d58m82h-k-5" value="登入失敗" style="text;html=1;resizable=0;autosize=1;align=center;verticalAlign=middle;points=[];fillColor=none;strokeColor=none;rounded=0;" parent="1" vertex="1">
                    <mxGeometry x="465" y="115" width="70" height="30" as="geometry"/>
                </mxCell>
                <mxCell id="paJvAujb9Q9d58m82h-k-20" value="" style="edgeStyle=orthogonalEdgeStyle;rounded=0;orthogonalLoop=1;jettySize=auto;html=1;" parent="1" source="paJvAujb9Q9d58m82h-k-8" target="paJvAujb9Q9d58m82h-k-19" edge="1">
                    <mxGeometry relative="1" as="geometry">
                        <Array as="points">
                            <mxPoint x="90" y="290"/>
                            <mxPoint x="90" y="290"/>
                        </Array>
                    </mxGeometry>
                </mxCell>
                <mxCell id="paJvAujb9Q9d58m82h-k-8" value="認養動物" style="rounded=1;whiteSpace=wrap;html=1;" parent="1" vertex="1">
                    <mxGeometry x="30" y="220" width="120" height="60" as="geometry"/>
                </mxCell>
                <mxCell id="paJvAujb9Q9d58m82h-k-29" value="" style="edgeStyle=orthogonalEdgeStyle;rounded=0;orthogonalLoop=1;jettySize=auto;html=1;" parent="1" source="paJvAujb9Q9d58m82h-k-9" target="paJvAujb9Q9d58m82h-k-28" edge="1">
                    <mxGeometry relative="1" as="geometry"/>
                </mxCell>
                <mxCell id="18" value="" style="edgeStyle=none;html=1;" edge="1" parent="1" source="paJvAujb9Q9d58m82h-k-9" target="paJvAujb9Q9d58m82h-k-8">
                    <mxGeometry relative="1" as="geometry"/>
                </mxCell>
                <mxCell id="paJvAujb9Q9d58m82h-k-9" value="公告招領" style="rounded=1;whiteSpace=wrap;html=1;" parent="1" vertex="1">
                    <mxGeometry x="230" y="220" width="120" height="60" as="geometry"/>
                </mxCell>
                <mxCell id="paJvAujb9Q9d58m82h-k-35" value="" style="edgeStyle=orthogonalEdgeStyle;rounded=0;orthogonalLoop=1;jettySize=auto;html=1;entryX=0;entryY=0.5;entryDx=0;entryDy=0;" parent="1" source="paJvAujb9Q9d58m82h-k-10" target="paJvAujb9Q9d58m82h-k-36" edge="1">
                    <mxGeometry relative="1" as="geometry">
                        <mxPoint x="460" y="410" as="targetPoint"/>
                        <Array as="points">
                            <mxPoint x="430" y="250"/>
                            <mxPoint x="430" y="420"/>
                        </Array>
                    </mxGeometry>
                </mxCell>
                <mxCell id="paJvAujb9Q9d58m82h-k-10" value="遺失協尋" style="rounded=1;whiteSpace=wrap;html=1;" parent="1" vertex="1">
                    <mxGeometry x="460" y="220" width="120" height="60" as="geometry"/>
                </mxCell>
                <mxCell id="paJvAujb9Q9d58m82h-k-11" value="外部連結" style="rounded=1;whiteSpace=wrap;html=1;" parent="1" vertex="1">
                    <mxGeometry x="680" y="220" width="120" height="60" as="geometry"/>
                </mxCell>
                <mxCell id="paJvAujb9Q9d58m82h-k-19" value="狗、貓、其他" style="rounded=1;whiteSpace=wrap;html=1;" parent="1" vertex="1">
                    <mxGeometry x="30" y="310" width="120" height="60" as="geometry"/>
                </mxCell>
                <mxCell id="paJvAujb9Q9d58m82h-k-23" value="內容" style="swimlane;" parent="1" vertex="1">
                    <mxGeometry x="20" y="390" width="150" height="80" as="geometry"/>
                </mxCell>
                <mxCell id="paJvAujb9Q9d58m82h-k-24" value="類別 性別 毛色 &lt;br&gt;體型 品種 動物之家" style="text;html=1;align=center;verticalAlign=middle;resizable=0;points=[];autosize=1;strokeColor=none;fillColor=none;" parent="paJvAujb9Q9d58m82h-k-23" vertex="1">
                    <mxGeometry x="10" y="25" width="130" height="40" as="geometry"/>
                </mxCell>
                <mxCell id="paJvAujb9Q9d58m82h-k-27" value="狗、貓、其他" style="rounded=1;whiteSpace=wrap;html=1;" parent="1" vertex="1">
                    <mxGeometry x="30" y="310" width="120" height="60" as="geometry"/>
                </mxCell>
                <mxCell id="paJvAujb9Q9d58m82h-k-28" value="狗、貓、其他" style="rounded=1;whiteSpace=wrap;html=1;" parent="1" vertex="1">
                    <mxGeometry x="230" y="310" width="120" height="60" as="geometry"/>
                </mxCell>
                <mxCell id="paJvAujb9Q9d58m82h-k-30" value="內容" style="swimlane;" parent="1" vertex="1">
                    <mxGeometry x="215" y="390" width="150" height="80" as="geometry"/>
                </mxCell>
                <mxCell id="paJvAujb9Q9d58m82h-k-31" value="類別 性別 毛色 照片&lt;br&gt;體型 品種 動物之家" style="text;html=1;align=center;verticalAlign=middle;resizable=0;points=[];autosize=1;strokeColor=none;fillColor=none;" parent="paJvAujb9Q9d58m82h-k-30" vertex="1">
                    <mxGeometry x="10" y="25" width="130" height="40" as="geometry"/>
                </mxCell>
                <mxCell id="paJvAujb9Q9d58m82h-k-33" value="內容" style="swimlane;" parent="1" vertex="1">
                    <mxGeometry x="445" y="290" width="150" height="80" as="geometry"/>
                </mxCell>
                <mxCell id="paJvAujb9Q9d58m82h-k-34" value="類別 性別 毛色 照片&lt;br&gt;體型 品種 失蹤時間&lt;br&gt;晶片號碼 特徵" style="text;html=1;align=center;verticalAlign=middle;resizable=0;points=[];autosize=1;strokeColor=none;fillColor=none;" parent="paJvAujb9Q9d58m82h-k-33" vertex="1">
                    <mxGeometry x="10" y="20" width="130" height="60" as="geometry"/>
                </mxCell>
                <mxCell id="paJvAujb9Q9d58m82h-k-36" value="遺失登記" style="rounded=1;whiteSpace=wrap;html=1;" parent="1" vertex="1">
                    <mxGeometry x="460" y="390" width="120" height="60" as="geometry"/>
                </mxCell>
            </root>
        </mxGraphModel>
    </diagram>
</mxfile>